<svg xmlns="http://www.w3.org/2000/svg" width="1200" height="420" viewBox="0 0 1200 420" role="img" aria-labelledby="title desc"><title id="title">China insight module visual</title><desc id="desc">A visual for China market, Australia-China projects, research and localisation.</desc><defs><linearGradient id="bg" x1="0" x2="1" y1="0" y2="1"><stop offset="0" stop-color="#450a0a"/><stop offset="0.52" stop-color="#9a3412"/><stop offset="1" stop-color="#111827"/></linearGradient></defs><rect width="1200" height="420" fill="url(#bg)"/><circle cx="990" cy="110" r="225" fill="#f97316" opacity=".15"/><circle cx="170" cy="340" r="190" fill="#facc15" opacity=".1"/><g transform="translate(130 92)"><rect width="280" height="236" rx="30" fill="#fff7ed" opacity=".95"/><path d="M58 70h160M58 110h128M58 150h176" stroke="#7c2d12" stroke-width="16" stroke-linecap="round" opacity=".7"/><rect x="58" y="184" width="150" height="34" rx="17" fill="#f97316"/></g><g transform="translate(480 92)"><rect width="250" height="236" rx="30" fill="#0f172a" stroke="#fed7aa" stroke-opacity=".48"/><path d="M54 170 C96 72 160 210 202 86" fill="none" stroke="#facc15" stroke-width="15" stroke-linecap="round"/><circle cx="54" cy="170" r="13" fill="#fed7aa"/><circle cx="202" cy="86" r="13" fill="#fed7aa"/></g><g transform="translate(790 92)"><rect width="280" height="236" rx="30" fill="#fee2e2" opacity=".95"/><circle cx="92" cy="102" r="48" fill="#dc2626" opacity=".82"/><circle cx="178" cy="134" r="48" fill="#f97316" opacity=".76"/><path d="M70 190h150" stroke="#7f1d1d" stroke-width="16" stroke-linecap="round" opacity=".58"/></g><text x="72" y="66" fill="#ffedd5" font-family="Arial, sans-serif" font-size="30" font-weight="800">China Insight · Market · Australia-China Projects</text></svg>