<svg xmlns="http://www.w3.org/2000/svg" width="1200" height="420" viewBox="0 0 1200 420" role="img" aria-labelledby="title desc"><title id="title">Projects module visual</title><desc id="desc">A collection of project cards for AI content, photography, ecommerce and publishing.</desc><defs><linearGradient id="bg" x1="0" x2="1"><stop offset="0" stop-color="#052e16"/><stop offset="0.55" stop-color="#064e3b"/><stop offset="1" stop-color="#0f172a"/></linearGradient></defs><rect width="1200" height="420" fill="url(#bg)"/><circle cx="1040" cy="80" r="200" fill="#22c55e" opacity=".13"/><circle cx="130" cy="345" r="220" fill="#facc15" opacity=".09"/><g transform="translate(105 118)"><rect width="210" height="190" rx="28" fill="#dbeafe"/><text x="105" y="108" fill="#1e3a8a" font-family="Arial, sans-serif" font-size="46" font-weight="900" text-anchor="middle">AI</text></g><g transform="translate(365 118)"><rect width="210" height="190" rx="28" fill="#ccfbf1"/><circle cx="105" cy="88" r="48" fill="#0f766e" opacity=".85"/><rect x="64" y="144" width="82" height="18" rx="9" fill="#134e4a" opacity=".75"/></g><g transform="translate(625 118)"><rect width="210" height="190" rx="28" fill="#fef3c7"/><path d="M64 78h82l18 78H46z" fill="#f59e0b"/><circle cx="75" cy="172" r="12" fill="#78350f"/><circle cx="145" cy="172" r="12" fill="#78350f"/></g><g transform="translate(885 118)"><rect width="210" height="190" rx="28" fill="#fee2e2"/><path d="M68 54h92v116H68z" fill="#991b1b" opacity=".82"/><path d="M88 78h52M88 104h40M88 130h52" stroke="#fee2e2" stroke-width="9" stroke-linecap="round"/></g><text x="72" y="66" fill="#dcfce7" font-family="Arial, sans-serif" font-size="30" font-weight="800">Projects · Prototypes · Published assets</text></svg>