<svg xmlns="http://www.w3.org/2000/svg" width="1200" height="520" viewBox="0 0 1200 520" role="img" aria-labelledby="title desc"><title id="title">Resources module visual</title><desc id="desc">A stylised collection of digital resources, files, tools and knowledge assets.</desc><defs><linearGradient id="bg" x1="0" x2="1" y1="0" y2="1"><stop offset="0" stop-color="#0f172a"/><stop offset="0.55" stop-color="#1d4ed8"/><stop offset="1" stop-color="#0f766e"/></linearGradient><linearGradient id="card" x1="0" x2="1"><stop offset="0" stop-color="#dbeafe"/><stop offset="1" stop-color="#fef3c7"/></linearGradient></defs><rect width="1200" height="520" fill="url(#bg)"/><circle cx="1020" cy="90" r="190" fill="#38bdf8" opacity=".16"/><circle cx="160" cy="420" r="210" fill="#facc15" opacity=".12"/><g transform="translate(150 90)"><rect x="0" y="0" width="260" height="330" rx="28" fill="url(#card)" opacity=".96"/><rect x="34" y="54" width="190" height="18" rx="9" fill="#0f172a" opacity=".78"/><rect x="34" y="104" width="160" height="12" rx="6" fill="#2563eb" opacity=".72"/><rect x="34" y="134" width="190" height="12" rx="6" fill="#2563eb" opacity=".45"/><rect x="34" y="164" width="130" height="12" rx="6" fill="#2563eb" opacity=".35"/><rect x="34" y="228" width="92" height="56" rx="16" fill="#f59e0b" opacity=".88"/><rect x="146" y="228" width="78" height="56" rx="16" fill="#14b8a6" opacity=".86"/></g><g transform="translate(445 150)"><rect x="0" y="0" width="310" height="220" rx="30" fill="#020617" opacity=".72" stroke="#93c5fd" stroke-opacity=".5"/><path d="M55 142h200M55 92h145M55 122h180" stroke="#dbeafe" stroke-width="16" stroke-linecap="round" opacity=".78"/><circle cx="248" cy="70" r="35" fill="#facc15" opacity=".9"/></g><g transform="translate(790 105)"><rect x="0" y="0" width="250" height="305" rx="28" fill="#e0f2fe" opacity=".96"/><path d="M55 76h140M55 116h110M55 156h150" stroke="#0f172a" stroke-width="15" stroke-linecap="round" opacity=".65"/><rect x="55" y="215" width="140" height="44" rx="22" fill="#0ea5e9"/></g><text x="74" y="72" fill="#e0f2fe" font-family="Arial, sans-serif" font-size="30" font-weight="800">Resources · Workbooks · Toolkits</text></svg>