<svg xmlns="http://www.w3.org/2000/svg" width="1200" height="420" viewBox="0 0 1200 420" role="img" aria-labelledby="title desc"><title id="title">About Triventure module visual</title><desc id="desc">A visual showing human experience supported by AI systems and digital publishing.</desc><defs><linearGradient id="bg" x1="0" x2="1" y1="0" y2="1"><stop offset="0" stop-color="#0f172a"/><stop offset="0.5" stop-color="#334155"/><stop offset="1" stop-color="#0369a1"/></linearGradient></defs><rect width="1200" height="420" fill="url(#bg)"/><circle cx="230" cy="210" r="110" fill="#e2e8f0" opacity=".12"/><circle cx="880" cy="170" r="155" fill="#38bdf8" opacity=".14"/><g transform="translate(165 120)"><circle cx="80" cy="62" r="45" fill="#f8fafc" opacity=".94"/><path d="M20 190c13-70 107-70 120 0" fill="#f8fafc" opacity=".94"/></g><g transform="translate(500 92)"><rect width="250" height="236" rx="32" fill="#020617" opacity=".78" stroke="#93c5fd" stroke-opacity=".48"/><circle cx="125" cy="94" r="44" fill="#38bdf8" opacity=".8"/><path d="M125 30v128M61 94h128M82 51l86 86M168 51l-86 86" stroke="#dbeafe" stroke-width="9" stroke-linecap="round" opacity=".62"/><rect x="58" y="180" width="134" height="18" rx="9" fill="#facc15" opacity=".86"/></g><g transform="translate(835 118)"><rect width="230" height="190" rx="28" fill="#f8fafc" opacity=".95"/><path d="M52 66h126M52 104h150M52 142h92" stroke="#0f172a" stroke-width="15" stroke-linecap="round" opacity=".65"/></g><text x="72" y="66" fill="#f8fafc" font-family="Arial, sans-serif" font-size="30" font-weight="800">Human experience · AI support · Digital assets</text></svg>