<svg xmlns="http://www.w3.org/2000/svg" width="1200" height="420" viewBox="0 0 1200 420" role="img" aria-labelledby="title desc"><title id="title">Services module visual</title><desc id="desc">A visual system showing service outputs, workflows and delivery.</desc><defs><linearGradient id="bg" x1="0" x2="1" y1="0" y2="1"><stop offset="0" stop-color="#111827"/><stop offset="0.55" stop-color="#7f1d1d"/><stop offset="1" stop-color="#312e81"/></linearGradient></defs><rect width="1200" height="420" fill="url(#bg)"/><circle cx="970" cy="250" r="260" fill="#fb7185" opacity=".12"/><g transform="translate(130 108)"><rect width="240" height="205" rx="28" fill="#fff1f2" opacity=".96"/><path d="M50 66h130M50 105h155M50 144h95" stroke="#881337" stroke-width="14" stroke-linecap="round" opacity=".7"/><circle cx="188" cy="152" r="30" fill="#fb7185"/></g><g transform="translate(480 78)"><rect width="250" height="260" rx="30" fill="#0f172a" stroke="#fecdd3" stroke-opacity=".5"/><path d="M74 80l50 50 54-76" fill="none" stroke="#fb7185" stroke-width="18" stroke-linecap="round" stroke-linejoin="round"/><rect x="56" y="178" width="140" height="18" rx="9" fill="#fecdd3" opacity=".85"/><rect x="56" y="216" width="100" height="14" rx="7" fill="#fecdd3" opacity=".55"/></g><g transform="translate(820 108)"><rect width="250" height="205" rx="28" fill="#e0f2fe" opacity=".96"/><circle cx="82" cy="96" r="42" fill="#38bdf8" opacity=".9"/><circle cx="162" cy="112" r="42" fill="#facc15" opacity=".9"/><path d="M82 170h104" stroke="#0f172a" stroke-width="15" stroke-linecap="round" opacity=".65"/></g><text x="72" y="66" fill="#ffe4e6" font-family="Arial, sans-serif" font-size="30" font-weight="800">Defined services · Clear outputs · Practical delivery</text></svg>