<svg xmlns="http://www.w3.org/2000/svg" width="760" height="620" viewBox="0 0 760 620"><defs><filter id="s"><feDropShadow dx="0" dy="18" stdDeviation="18" flood-opacity=".3"/></filter></defs><rect x="52" y="35" width="656" height="550" rx="30" fill="#fff" filter="url(#s)"/><rect x="52" y="35" width="656" height="90" rx="30" fill="#0f172a"/><text x="92" y="82" fill="#fff" font-family="Arial" font-size="24" font-weight="900">Digital Asset Starter Canvas</text><text x="92" y="108" fill="#fde68a" font-family="Arial" font-size="13" font-weight="700">FREE · BILINGUAL · LOCAL SAVE</text><rect x="92" y="152" width="74" height="74" rx="20" fill="#0f172a"/><text x="111" y="198" fill="#facc15" font-family="Arial" font-size="24" font-weight="900">01</text><text x="190" y="183" fill="#0f172a" font-family="Arial" font-size="24" font-weight="900">Define the Knowledge Core</text><rect x="190" y="201" width="320" height="11" rx="5" fill="#cbd5e1"/><rect x="92" y="250" width="575" height="58" rx="13" fill="#f1f5f9" stroke="#cbd5e1"/><rect x="92" y="330" width="74" height="74" rx="20" fill="#0f172a"/><text x="111" y="376" fill="#facc15" font-family="Arial" font-size="24" font-weight="900">02</text><text x="190" y="361" fill="#0f172a" font-family="Arial" font-size="24" font-weight="900">Identify the User and Value</text><rect x="190" y="379" width="290" height="11" rx="5" fill="#cbd5e1"/><rect x="92" y="428" width="575" height="58" rx="13" fill="#f1f5f9" stroke="#cbd5e1"/><rect x="92" y="515" width="190" height="38" rx="19" fill="#facc15"/><text x="126" y="540" fill="#111827" font-family="Arial" font-size="14" font-weight="900">SAVE IN BROWSER</text><rect x="300" y="515" width="170" height="38" rx="19" fill="#e2e8f0"/><text x="338" y="540" fill="#334155" font-family="Arial" font-size="14" font-weight="900">EXPORT RECORD</text></svg>