<svg xmlns="http://www.w3.org/2000/svg" width="640" height="420" viewBox="0 0 640 420"><defs><linearGradient id="b" x1="0" y1="0" x2="1" y2="1"><stop stop-color="#1e3a8a"/><stop offset="1" stop-color="#4c1d95"/></linearGradient></defs><rect width="640" height="420" fill="url(#b)"/><circle cx="320" cy="210" r="70" fill="#0f172a" stroke="#facc15" stroke-width="5"/><text x="280" y="221" fill="#fde68a" font-family="Arial" font-size="32" font-weight="900">AI</text><g fill="#fff" opacity=".9"><rect x="75" y="70" width="150" height="90" rx="18"/><rect x="415" y="70" width="150" height="90" rx="18"/><rect x="75" y="260" width="150" height="90" rx="18"/><rect x="415" y="260" width="150" height="90" rx="18"/></g><g stroke="#7dd3fc" stroke-width="4"><path d="M225 115L268 175M415 115L372 175M225 305L268 245M415 305L372 245"/></g><g fill="#334155"><rect x="100" y="95" width="100" height="10" rx="5"/><rect x="100" y="119" width="72" height="8" rx="4"/><circle cx="455" cy="115" r="22"/><path d="M475 300l38 22h-76z"/><rect x="105" y="285" width="90" height="44" rx="10"/></g></svg>