<svg xmlns="http://www.w3.org/2000/svg" width="640" height="420" viewBox="0 0 640 420" role="img" aria-labelledby="title desc"><title id="title">AI Tools gateway</title><desc id="desc">AI Tools connected to LLMs, video creation, image creation and more tools.</desc><defs><linearGradient id="bg" x1="0" y1="0" x2="1" y2="1"><stop stop-color="#263f9f"/><stop offset="1" stop-color="#5420a0"/></linearGradient></defs><rect width="640" height="420" rx="28" fill="url(#bg)"/><g stroke="#65d5ff" stroke-width="4" fill="none"><path d="M225 115L270 174M415 115L370 174M225 305L270 246M415 305L370 246"/></g><g fill="#f8fafc"><rect x="62" y="58" width="180" height="105" rx="20"/><rect x="398" y="58" width="180" height="105" rx="20"/><rect x="62" y="257" width="180" height="105" rx="20"/><rect x="398" y="257" width="180" height="105" rx="20"/></g><circle cx="320" cy="210" r="72" fill="#0f172a" stroke="#facc15" stroke-width="6"/><g font-family="Arial, Helvetica, sans-serif" text-anchor="middle" font-weight="800"><text x="320" y="218" fill="#fde68a" font-size="24">AI Tools</text><text x="152" y="120" fill="#334155" font-size="22">LLMs</text><text x="488" y="111" fill="#334155" font-size="18"><tspan x="488" dy="0">Video</tspan><tspan x="488" dy="23">Creation</tspan></text><text x="152" y="309" fill="#334155" font-size="18"><tspan x="152" dy="0">Image</tspan><tspan x="152" dy="23">Creation</tspan></text><text x="488" y="309" fill="#334155" font-size="18"><tspan x="488" dy="0">More</tspan><tspan x="488" dy="23">Tools</tspan></text></g></svg>