<svg xmlns="http://www.w3.org/2000/svg" width="960" height="720" viewBox="0 0 960 720" role="img" aria-labelledby="title desc"><title id="title">Triventure AI digital asset banner</title><desc id="desc">A network linking knowledge, AI tools, media, publishing and digital products.</desc><defs><linearGradient id="bg" x1="0" y1="0" x2="1" y2="1"><stop stop-color="#071426"/><stop offset=".55" stop-color="#0b2d4d"/><stop offset="1" stop-color="#123d32"/></linearGradient><linearGradient id="card" x1="0" y1="0" x2="1" y2="1"><stop stop-color="#13243c"/><stop offset="1" stop-color="#0b1628"/></linearGradient><filter id="glow"><feGaussianBlur stdDeviation="8" result="b"/><feMerge><feMergeNode in="b"/><feMergeNode in="SourceGraphic"/></feMerge></filter></defs><rect width="960" height="720" rx="44" fill="url(#bg)"/><circle cx="760" cy="140" r="150" fill="#38bdf8" opacity=".08"/><circle cx="160" cy="610" r="180" fill="#2dd4bf" opacity=".08"/><g stroke="#38bdf8" stroke-width="3" opacity=".55" fill="none"><path d="M475 348L240 188M475 348L740 188M475 348L245 535M475 348L740 535"/><path d="M240 188L740 188M245 535L740 535" stroke-dasharray="10 12" opacity=".35"/></g><g filter="url(#glow)"><circle cx="475" cy="348" r="92" fill="#0f172a" stroke="#facc15" stroke-width="4"/><circle cx="475" cy="348" r="62" fill="#facc15" opacity=".12"/><path d="M432 356c0-35 26-64 59-64 30 0 55 22 59 51 19 5 33 22 33 42 0 24-20 44-44 44H448c-28 0-51-23-51-51 0-23 14-43 35-50z" fill="none" stroke="#fde68a" stroke-width="7"/><path d="M452 325h46M452 350h70M452 375h55" stroke="#fde68a" stroke-width="7" stroke-linecap="round"/></g><g font-family="Arial, sans-serif"><g transform="translate(95 105)"><rect width="290" height="155" rx="24" fill="url(#card)" stroke="#38bdf8" opacity=".95"/><text x="28" y="45" fill="#7dd3fc" font-size="16" font-weight="700">KNOWLEDGE</text><text x="28" y="82" fill="#fff" font-size="28" font-weight="800">Experience + Ideas</text><rect x="28" y="105" width="150" height="10" rx="5" fill="#38bdf8" opacity=".55"/><rect x="28" y="124" width="215" height="8" rx="4" fill="#94a3b8" opacity=".28"/></g><g transform="translate(585 105)"><rect width="280" height="155" rx="24" fill="url(#card)" stroke="#2dd4bf" opacity=".95"/><text x="28" y="45" fill="#5eead4" font-size="16" font-weight="700">AI TOOLS</text><text x="28" y="82" fill="#fff" font-size="28" font-weight="800">Research + Media</text><circle cx="50" cy="119" r="14" fill="#2dd4bf" opacity=".65"/><circle cx="92" cy="119" r="14" fill="#38bdf8" opacity=".65"/><circle cx="134" cy="119" r="14" fill="#facc15" opacity=".65"/></g><g transform="translate(95 455)"><rect width="300" height="155" rx="24" fill="url(#card)" stroke="#a78bfa" opacity=".95"/><text x="28" y="45" fill="#c4b5fd" font-size="16" font-weight="700">PUBLISH</text><text x="28" y="82" fill="#fff" font-size="28" font-weight="800">Books + Video</text><path d="M30 110h80v25H30zM124 110h80v25h-80zM218 110h48v25h-48z" fill="#a78bfa" opacity=".35"/></g><g transform="translate(575 455)"><rect width="300" height="155" rx="24" fill="url(#card)" stroke="#facc15" opacity=".95"/><text x="28" y="45" fill="#fde68a" font-size="16" font-weight="700">DIGITAL ASSET</text><text x="28" y="82" fill="#fff" font-size="28" font-weight="800">Product + System</text><rect x="28" y="108" width="242" height="28" rx="14" fill="#facc15" opacity=".22"/><text x="48" y="128" fill="#fde68a" font-size="13" font-weight="700">CREATE · REGISTER · IMPROVE</text></g></g></svg>